<mxfile host="app.diagrams.net" modified="2020-06-08T15:33:20.003Z" agent="5.0 (Windows NT 10.0; Win64; x64) AppleWebKit/537.36 (KHTML, like Gecko) Chrome/83.0.4103.61 Safari/537.36" etag="9Pc0VVEr9lpQjCezjayN" version="13.1.14" type="github">
  <diagram id="C5RBs43oDa-KdzZeNtuy" name="Page-1">
    <mxGraphModel dx="1022" dy="469" grid="1" gridSize="10" guides="1" tooltips="1" connect="1" arrows="1" fold="1" page="1" pageScale="1" pageWidth="827" pageHeight="1169" math="0" shadow="0">
      <root>
        <mxCell id="WIyWlLk6GJQsqaUBKTNV-0" />
        <mxCell id="WIyWlLk6GJQsqaUBKTNV-1" parent="WIyWlLk6GJQsqaUBKTNV-0" />
        <mxCell id="EiqMzlGZys15KGALrCQn-2" value="" style="edgeStyle=orthogonalEdgeStyle;rounded=0;orthogonalLoop=1;jettySize=auto;html=1;" parent="WIyWlLk6GJQsqaUBKTNV-1" source="EiqMzlGZys15KGALrCQn-0" target="EiqMzlGZys15KGALrCQn-1" edge="1">
          <mxGeometry relative="1" as="geometry" />
        </mxCell>
        <mxCell id="EiqMzlGZys15KGALrCQn-6" style="edgeStyle=orthogonalEdgeStyle;rounded=0;orthogonalLoop=1;jettySize=auto;html=1;entryX=0;entryY=0.5;entryDx=0;entryDy=0;" parent="WIyWlLk6GJQsqaUBKTNV-1" source="EiqMzlGZys15KGALrCQn-0" target="EiqMzlGZys15KGALrCQn-5" edge="1">
          <mxGeometry relative="1" as="geometry" />
        </mxCell>
        <mxCell id="EiqMzlGZys15KGALrCQn-8" style="edgeStyle=orthogonalEdgeStyle;rounded=0;orthogonalLoop=1;jettySize=auto;html=1;entryX=0;entryY=0.5;entryDx=0;entryDy=0;" parent="WIyWlLk6GJQsqaUBKTNV-1" source="EiqMzlGZys15KGALrCQn-0" target="EiqMzlGZys15KGALrCQn-7" edge="1">
          <mxGeometry relative="1" as="geometry" />
        </mxCell>
        <mxCell id="n6K1AOmbbIWYgAg3jVhA-6" style="edgeStyle=orthogonalEdgeStyle;rounded=0;orthogonalLoop=1;jettySize=auto;html=1;entryX=0;entryY=0.5;entryDx=0;entryDy=0;" edge="1" parent="WIyWlLk6GJQsqaUBKTNV-1" source="EiqMzlGZys15KGALrCQn-0" target="n6K1AOmbbIWYgAg3jVhA-5">
          <mxGeometry relative="1" as="geometry" />
        </mxCell>
        <mxCell id="EiqMzlGZys15KGALrCQn-0" value="Extract from client ERP" style="rounded=0;whiteSpace=wrap;html=1;fillColor=#FFFF33;" parent="WIyWlLk6GJQsqaUBKTNV-1" vertex="1">
          <mxGeometry x="110" y="130" width="120" height="60" as="geometry" />
        </mxCell>
        <mxCell id="EiqMzlGZys15KGALrCQn-11" style="edgeStyle=orthogonalEdgeStyle;rounded=0;orthogonalLoop=1;jettySize=auto;html=1;entryX=0;entryY=0.5;entryDx=0;entryDy=0;" parent="WIyWlLk6GJQsqaUBKTNV-1" source="EiqMzlGZys15KGALrCQn-1" target="EiqMzlGZys15KGALrCQn-9" edge="1">
          <mxGeometry relative="1" as="geometry" />
        </mxCell>
        <mxCell id="EiqMzlGZys15KGALrCQn-1" value="Restructure Documents if necessary" style="rounded=0;whiteSpace=wrap;html=1;fillColor=#FFFF33;" parent="WIyWlLk6GJQsqaUBKTNV-1" vertex="1">
          <mxGeometry x="300" y="130" width="120" height="60" as="geometry" />
        </mxCell>
        <mxCell id="EiqMzlGZys15KGALrCQn-12" style="edgeStyle=orthogonalEdgeStyle;rounded=0;orthogonalLoop=1;jettySize=auto;html=1;entryX=0;entryY=0.5;entryDx=0;entryDy=0;" parent="WIyWlLk6GJQsqaUBKTNV-1" source="EiqMzlGZys15KGALrCQn-5" target="EiqMzlGZys15KGALrCQn-9" edge="1">
          <mxGeometry relative="1" as="geometry" />
        </mxCell>
        <mxCell id="EiqMzlGZys15KGALrCQn-5" value="Apply folder structure to Lx" style="rounded=0;whiteSpace=wrap;html=1;fillColor=#FFFF33;" parent="WIyWlLk6GJQsqaUBKTNV-1" vertex="1">
          <mxGeometry x="300" y="220" width="120" height="60" as="geometry" />
        </mxCell>
        <mxCell id="EiqMzlGZys15KGALrCQn-10" style="edgeStyle=orthogonalEdgeStyle;rounded=0;orthogonalLoop=1;jettySize=auto;html=1;entryX=0;entryY=0.5;entryDx=0;entryDy=0;" parent="WIyWlLk6GJQsqaUBKTNV-1" source="EiqMzlGZys15KGALrCQn-7" target="EiqMzlGZys15KGALrCQn-9" edge="1">
          <mxGeometry relative="1" as="geometry" />
        </mxCell>
        <mxCell id="EiqMzlGZys15KGALrCQn-7" value="Map Lx entities to ERP entiies" style="rounded=0;whiteSpace=wrap;html=1;fillColor=#FFFF00;" parent="WIyWlLk6GJQsqaUBKTNV-1" vertex="1">
          <mxGeometry x="300" y="40" width="120" height="60" as="geometry" />
        </mxCell>
        <mxCell id="EiqMzlGZys15KGALrCQn-14" value="" style="edgeStyle=orthogonalEdgeStyle;rounded=0;orthogonalLoop=1;jettySize=auto;html=1;" parent="WIyWlLk6GJQsqaUBKTNV-1" source="EiqMzlGZys15KGALrCQn-9" target="EiqMzlGZys15KGALrCQn-13" edge="1">
          <mxGeometry relative="1" as="geometry" />
        </mxCell>
        <mxCell id="EiqMzlGZys15KGALrCQn-9" value="Set up JAR loader" style="rounded=0;whiteSpace=wrap;html=1;" parent="WIyWlLk6GJQsqaUBKTNV-1" vertex="1">
          <mxGeometry x="470" y="130" width="120" height="60" as="geometry" />
        </mxCell>
        <mxCell id="EiqMzlGZys15KGALrCQn-18" value="" style="edgeStyle=orthogonalEdgeStyle;rounded=0;orthogonalLoop=1;jettySize=auto;html=1;" parent="WIyWlLk6GJQsqaUBKTNV-1" source="EiqMzlGZys15KGALrCQn-13" target="EiqMzlGZys15KGALrCQn-17" edge="1">
          <mxGeometry relative="1" as="geometry" />
        </mxCell>
        <mxCell id="EiqMzlGZys15KGALrCQn-13" value="Load sample to Train" style="rounded=0;whiteSpace=wrap;html=1;" parent="WIyWlLk6GJQsqaUBKTNV-1" vertex="1">
          <mxGeometry x="640" y="130" width="120" height="60" as="geometry" />
        </mxCell>
        <mxCell id="EiqMzlGZys15KGALrCQn-20" value="" style="edgeStyle=orthogonalEdgeStyle;rounded=0;orthogonalLoop=1;jettySize=auto;html=1;" parent="WIyWlLk6GJQsqaUBKTNV-1" source="EiqMzlGZys15KGALrCQn-17" target="EiqMzlGZys15KGALrCQn-19" edge="1">
          <mxGeometry relative="1" as="geometry" />
        </mxCell>
        <mxCell id="EiqMzlGZys15KGALrCQn-17" value="Client validates" style="rounded=0;whiteSpace=wrap;html=1;" parent="WIyWlLk6GJQsqaUBKTNV-1" vertex="1">
          <mxGeometry x="800" y="130" width="120" height="60" as="geometry" />
        </mxCell>
        <mxCell id="EiqMzlGZys15KGALrCQn-22" style="edgeStyle=orthogonalEdgeStyle;rounded=0;orthogonalLoop=1;jettySize=auto;html=1;entryX=0.5;entryY=0;entryDx=0;entryDy=0;" parent="WIyWlLk6GJQsqaUBKTNV-1" source="EiqMzlGZys15KGALrCQn-19" target="EiqMzlGZys15KGALrCQn-21" edge="1">
          <mxGeometry relative="1" as="geometry">
            <Array as="points">
              <mxPoint x="1140" y="160" />
            </Array>
          </mxGeometry>
        </mxCell>
        <mxCell id="EiqMzlGZys15KGALrCQn-25" style="edgeStyle=orthogonalEdgeStyle;rounded=0;orthogonalLoop=1;jettySize=auto;html=1;entryX=0;entryY=0.5;entryDx=0;entryDy=0;" parent="WIyWlLk6GJQsqaUBKTNV-1" source="EiqMzlGZys15KGALrCQn-19" target="EiqMzlGZys15KGALrCQn-24" edge="1">
          <mxGeometry relative="1" as="geometry" />
        </mxCell>
        <mxCell id="EiqMzlGZys15KGALrCQn-19" value="Run Prod batches" style="rounded=0;whiteSpace=wrap;html=1;" parent="WIyWlLk6GJQsqaUBKTNV-1" vertex="1">
          <mxGeometry x="960" y="130" width="120" height="60" as="geometry" />
        </mxCell>
        <mxCell id="EiqMzlGZys15KGALrCQn-23" style="edgeStyle=orthogonalEdgeStyle;rounded=0;orthogonalLoop=1;jettySize=auto;html=1;entryX=0.5;entryY=1;entryDx=0;entryDy=0;" parent="WIyWlLk6GJQsqaUBKTNV-1" source="EiqMzlGZys15KGALrCQn-21" target="EiqMzlGZys15KGALrCQn-19" edge="1">
          <mxGeometry relative="1" as="geometry">
            <Array as="points">
              <mxPoint x="1020" y="240" />
            </Array>
          </mxGeometry>
        </mxCell>
        <mxCell id="EiqMzlGZys15KGALrCQn-21" value="Remediate errors" style="rounded=0;whiteSpace=wrap;html=1;" parent="WIyWlLk6GJQsqaUBKTNV-1" vertex="1">
          <mxGeometry x="1080" y="220" width="120" height="60" as="geometry" />
        </mxCell>
        <mxCell id="EiqMzlGZys15KGALrCQn-24" value="Run final QC" style="rounded=0;whiteSpace=wrap;html=1;" parent="WIyWlLk6GJQsqaUBKTNV-1" vertex="1">
          <mxGeometry x="1200" y="130" width="120" height="60" as="geometry" />
        </mxCell>
        <mxCell id="n6K1AOmbbIWYgAg3jVhA-7" style="edgeStyle=orthogonalEdgeStyle;rounded=0;orthogonalLoop=1;jettySize=auto;html=1;entryX=0;entryY=0.5;entryDx=0;entryDy=0;" edge="1" parent="WIyWlLk6GJQsqaUBKTNV-1" source="n6K1AOmbbIWYgAg3jVhA-5" target="EiqMzlGZys15KGALrCQn-9">
          <mxGeometry relative="1" as="geometry" />
        </mxCell>
        <mxCell id="n6K1AOmbbIWYgAg3jVhA-5" value="Set up meta data" style="rounded=0;whiteSpace=wrap;html=1;fillColor=#FFFF33;" vertex="1" parent="WIyWlLk6GJQsqaUBKTNV-1">
          <mxGeometry x="300" y="320" width="120" height="60" as="geometry" />
        </mxCell>
        <mxCell id="n6K1AOmbbIWYgAg3jVhA-10" value="&lt;ul&gt;&lt;li&gt;How to extract documents from iSight?&lt;/li&gt;&lt;li&gt;How to deliver documents to Lucernex team?&lt;/li&gt;&lt;li&gt;iSight : Lx data model for document-containing entiies?&lt;/li&gt;&lt;li&gt;iSight: Lx folder structure?&lt;/li&gt;&lt;li&gt;Meta data required?&lt;/li&gt;&lt;li&gt;Critical document set?&lt;/li&gt;&lt;li&gt;iSight delta possibility?&lt;/li&gt;&lt;/ul&gt;" style="rounded=1;whiteSpace=wrap;html=1;fillColor=#FFFF00;align=left;" vertex="1" parent="WIyWlLk6GJQsqaUBKTNV-1">
          <mxGeometry x="180" y="530" width="330" height="170" as="geometry" />
        </mxCell>
      </root>
    </mxGraphModel>
  </diagram>
</mxfile>
